HIERARCHY
ROOT hip
{
  OFFSET 0 0 0
  CHANNELS 6 Xposition Yposition Zposition Zrotation Yrotation Xrotation
  JOINT abdomen
  {
    OFFSET 0 20.6881 -0.73152
    CHANNELS 3 Zrotation Xrotation Yrotation
    JOINT chest
    {
      OFFSET 0 11.7043 -0.48768
      CHANNELS 3 Zrotation Xrotation Yrotation
      JOINT neck
      {
        OFFSET 0 22.1894 -2.19456
        CHANNELS 3 Zrotation Xrotation Yrotation
        JOINT head
        {
          OFFSET -0.24384 7.07133 1.2192
          CHANNELS 3 Zrotation Xrotation Yrotation
          JOINT leftEye
          {
            OFFSET 4.14528 8.04674 8.04672
            CHANNELS 3 Zrotation Xrotation Yrotation
            End Site
            {
              OFFSET 1 0 0
            }
          }
          JOINT rightEye
          {
            OFFSET -3.6576 8.04674 8.04672
            CHANNELS 3 Zrotation Xrotation Yrotation
            End Site
            {
              OFFSET 1 0 0
            }
          }
        }
      }
      JOINT rCollar
      {
        OFFSET -2.68224 19.2634 -4.8768
        CHANNELS 3 Zrotation Xrotation Yrotation
        JOINT rShldr
        {
          OFFSET -8.77824 -1.95073 1.46304
          CHANNELS 3 Zrotation Xrotation Yrotation
          JOINT rForeArm
          {
            OFFSET -28.1742 -1.7115 0.48768
            CHANNELS 3 Zrotation Xrotation Yrotation
            JOINT rHand
            {
              OFFSET -22.5879 0.773209 7.07136
              CHANNELS 3 Zrotation Xrotation Yrotation
              JOINT rThumb1
              {
                OFFSET -1.2192 -0.487915 3.41376
                CHANNELS 3 Zrotation Xrotation Yrotation
                JOINT rThumb2
                {
                  OFFSET -3.37035 -0.52449 3.41376
                  CHANNELS 3 Zrotation Xrotation Yrotation
                  End Site
                  {
                    OFFSET -1.78271 -1.18214 1.43049
                  }
                }
              }
              JOINT rIndex1
              {
                OFFSET -7.75947 0.938293 5.60832
                CHANNELS 3 Zrotation Xrotation Yrotation
                JOINT rIndex2
                {
                  OFFSET -2.54057 -0.884171 1.56538
                  CHANNELS 3 Zrotation Xrotation Yrotation
                  End Site
                  {
                    OFFSET -1.62519 -0.234802 1.16502
                  }
                }
              }
              JOINT rMid1
              {
                OFFSET -8.24714 1.18213 3.41376
                CHANNELS 3 Zrotation Xrotation Yrotation
                JOINT rMid2
                {
                  OFFSET -3.10165 -0.590103 1.0647
                  CHANNELS 3 Zrotation Xrotation Yrotation
                  End Site
                  {
                    OFFSET -2.48547 -0.328903 0.83742
                  }
                }
              }
              JOINT rRing1
              {
                OFFSET -8.82822 0.546677 1.51678
                CHANNELS 3 Zrotation Xrotation Yrotation
                JOINT rRing2
                {
                  OFFSET -2.60934 -0.819778 -0.0198488
                  CHANNELS 3 Zrotation Xrotation Yrotation
                  End Site
                  {
                    OFFSET -2.33842 -0.294052 0.168128
                  }
                }
              }
              JOINT rPinky1
              {
                OFFSET -8.27202 -0.0477905 -0.4584
                CHANNELS 3 Zrotation Xrotation Yrotation
                JOINT rPinky2
                {
                  OFFSET -1.82734 -0.647385 -0.700984
                  CHANNELS 3 Zrotation Xrotation Yrotation
                  End Site
                  {
                    OFFSET -1.69225 -0.51767 -0.607171
                  }
                }
              }
            }
          }
        }
      }
      JOINT lCollar
      {
        OFFSET 2.68224 19.2634 -4.8768
        CHANNELS 3 Zrotation Xrotation Yrotation
        JOINT lShldr
        {
          OFFSET 8.77824 -1.95073 1.46304
          CHANNELS 3 Zrotation Xrotation Yrotation
          JOINT lForeArm
          {
            OFFSET 28.1742 -1.7115 0.48768
            CHANNELS 3 Zrotation Xrotation Yrotation
            JOINT lHand
            {
              OFFSET 22.5879 0.773209 7.07136
              CHANNELS 3 Zrotation Xrotation Yrotation
              JOINT lThumb1
              {
                OFFSET 1.2192 -0.487915 3.41376
                CHANNELS 3 Zrotation Xrotation Yrotation
                JOINT lThumb2
                {
                  OFFSET 3.37035 -0.52449 3.41376
                  CHANNELS 3 Zrotation Xrotation Yrotation
                  End Site
                  {
                    OFFSET 1.78271 -1.18214 1.43049
                  }
                }
              }
              JOINT lIndex1
              {
                OFFSET 7.75947 0.938293 5.60832
                CHANNELS 3 Zrotation Xrotation Yrotation
                JOINT lIndex2
                {
                  OFFSET 2.54057 -0.884171 1.56538
                  CHANNELS 3 Zrotation Xrotation Yrotation
                  End Site
                  {
                    OFFSET 1.62519 -0.234802 1.16502
                  }
                }
              }
              JOINT lMid1
              {
                OFFSET 8.24714 1.18213 3.41376
                CHANNELS 3 Zrotation Xrotation Yrotation
                JOINT lMid2
                {
                  OFFSET 3.10165 -0.590103 1.0647
                  CHANNELS 3 Zrotation Xrotation Yrotation
                  End Site
                  {
                    OFFSET 2.48547 -0.328903 0.83742
                  }
                }
              }
              JOINT lRing1
              {
                OFFSET 8.82822 0.546677 1.51678
                CHANNELS 3 Zrotation Xrotation Yrotation
                JOINT lRing2
                {
                  OFFSET 2.60934 -0.819778 -0.0198488
                  CHANNELS 3 Zrotation Xrotation Yrotation
                  End Site
                  {
                    OFFSET 2.33842 -0.294052 0.168128
                  }
                }
              }
              JOINT lPinky1
              {
                OFFSET 8.27202 -0.0477905 -0.4584
                CHANNELS 3 Zrotation Xrotation Yrotation
                JOINT lPinky2
                {
                  OFFSET 1.82734 -0.647385 -0.700984
                  CHANNELS 3 Zrotation Xrotation Yrotation
                  End Site
                  {
                    OFFSET 1.69225 -0.51767 -0.607171
                  }
                }
              }
            }
          }
        }
      }
    }
  }
  JOINT rButtock
  {
    OFFSET -8.77824 4.35084 1.2192
    CHANNELS 3 Zrotation Xrotation Yrotation
    JOINT rThigh
    {
      OFFSET 0 -1.70687 -2.19456
      CHANNELS 3 Zrotation Xrotation Yrotation
      JOINT rShin
      {
        OFFSET 0 -36.8199 0.73152
        CHANNELS 3 Zrotation Xrotation Yrotation
        JOINT rFoot
        {
          OFFSET 0.73152 -45.1104 -5.12064
          CHANNELS 3 Zrotation Xrotation Yrotation
          End Site
          {
            OFFSET -1.1221 -3.69964 12.103
          }
        }
      }
    }
  }
  JOINT lButtock
  {
    OFFSET 8.77824 4.35084 1.2192
    CHANNELS 3 Zrotation Xrotation Yrotation
    JOINT lThigh
    {
      OFFSET 0 -1.70687 -2.19456
      CHANNELS 3 Zrotation Xrotation Yrotation
      JOINT lShin
      {
        OFFSET 0 -36.8199 0.73152
        CHANNELS 3 Zrotation Xrotation Yrotation
        JOINT lFoot
        {
          OFFSET -0.73152 -45.1104 -5.12064
          CHANNELS 3 Zrotation Xrotation Yrotation
          End Site
          {
            OFFSET 1.1221 -3.69964 12.103
          }
        }
      }
    }
  }
}
MOTION
Frames:	6
Frame Time:	0.00833333
261.303 80.758 -28.9518 -711.942 -349.155 720.745 -4.60519 2.54662 14.243 -2.72516 1.18939 3.91967 5.11114 5.30597 7.41867 3.58391 -11.2871 14.0823 -0.0 0.0 0.0 -0.0 0.0 0.0 -3.63652e-13 1.97195e-13 -1.17581e-13 74.9628 61.3172 3.40367 -22.2449 -16.1293 44.4562 -0.0707591 -7.56769 -1.06986 1.44162e-09 5.13269e-10 -3.90012e-10 2.49433e-09 8.64688e-10 -6.59467e-10 1.44162e-09 5.13274e-10 -3.90031e-10 7.73091 5.47488 0.417314 1.44162e-09 5.13272e-10 -3.90019e-10 2.90554 0.965183 0.102902 1.44162e-09 5.13273e-10 -3.90016e-10 10.2786 0.731801 0.0259123 1.44162e-09 5.13276e-10 -3.90006e-10 2.22167 -0.733487 -0.20892 -3.63924e-13 1.97192e-13 -1.1778e-13 -98.8364 30.7352 31.9624 10.3634 -4.36511 -18.4847 0.173717 -11.7946 1.68168 3.47492e-09 -2.77742e-10 -1.61386e-09 6.01771e-09 -4.76667e-10 -2.76663e-09 3.47492e-09 -2.77743e-10 -1.61385e-09 -7.73091 5.47488 -0.417314 3.47492e-09 -2.77743e-10 -1.61387e-09 -2.90554 0.965183 -0.102902 3.47491e-09 -2.77744e-10 -1.61386e-09 -10.2786 0.731801 -0.0259123 3.47492e-09 -2.77741e-10 -1.61387e-09 -2.22167 -0.733487 0.20892 -2.03217e-16 0.0 -3.88251e-19 3.88931 -27.7971 9.4975 -1.25551 62.4433 1.65344 -2.183 -11.6606 -5.07506 2.03217e-16 0.0 3.88251e-19 6.00788 -12.8991 -2.38736 0.0884626 29.2828 -0.360815 0.225354 1.48147 -14.1528
261.906 80.7589 -29.1554 -711.903 -350.845 721.064 -4.8203 2.44523 14.2534 -2.69283 1.15745 3.92589 5.06497 5.35734 7.50941 3.71247 -11.5297 14.2919 -0.0 0.0 0.0 -0.0 0.0 0.0 -3.45707e-13 1.866e-13 -2.40417e-14 75.4443 61.2014 2.85539 -22.4461 -16.4439 45.0034 -0.0735671 -7.71903 -1.09151 1.49305e-09 1.5047e-09 -7.69294e-10 2.58588e-09 2.58262e-09 -1.31712e-09 1.49305e-09 1.5047e-09 -7.69311e-10 7.73091 5.47488 0.417314 1.49305e-09 1.5047e-09 -7.69299e-10 2.90554 0.965183 0.102902 1.49305e-09 1.5047e-09 -7.69297e-10 10.2786 0.731801 0.0259123 1.49305e-09 1.50471e-09 -7.69286e-10 2.22167 -0.733487 -0.20892 -3.45962e-13 1.86597e-13 -2.42269e-14 -98.8947 31.0518 31.9788 10.5667 -4.49244 -18.8694 0.168052 -11.6103 1.65462 3.7038e-09 -8.30187e-10 -1.15791e-09 6.40901e-09 -1.43222e-09 -1.9766e-09 3.7038e-09 -8.30188e-10 -1.1579e-09 -7.73091 5.47488 -0.417314 3.7038e-09 -8.30188e-10 -1.15792e-09 -2.90554 0.965183 -0.102902 3.7038e-09 -8.30189e-10 -1.15792e-09 -10.2786 0.731801 -0.0259123 3.70381e-09 -8.30186e-10 -1.15792e-09 -2.22167 -0.733487 0.20892 -2.03217e-16 0.0 -3.88251e-19 3.48015 -28.2382 7.77795 -1.24069 62.3642 1.67697 -3.11866 -12.9952 -7.57604 2.03217e-16 0.0 3.88251e-19 5.71895 -12.9081 -1.80821 0.0909597 29.4511 -0.372361 0.136762 1.13314 -14.3408
262.459 80.7542 -29.3655 -711.947 -352.421 721.351 -4.96604 2.38266 14.2206 -2.61044 1.09538 3.92134 4.98046 5.3867 7.55768 3.90404 -11.8065 14.4327 -0.0 0.0 0.0 -0.0 0.0 0.0 -2.57186e-13 1.34504e-13 9.68796e-14 76.1238 60.9957 2.01946 -22.6628 -16.789 45.6047 -0.0785868 -7.97349 -1.12796 1.29497e-09 2.50366e-09 -1.13364e-09 2.24579e-09 4.31759e-09 -1.9518e-09 1.29497e-09 2.50367e-09 -1.13366e-09 7.73091 5.47488 0.417314 1.29497e-09 2.50366e-09 -1.13364e-09 2.90554 0.965183 0.102902 1.29497e-09 2.50367e-09 -1.13364e-09 10.2786 0.731801 0.0259123 1.29497e-09 2.50367e-09 -1.13363e-09 2.22167 -0.733487 -0.20892 -2.57385e-13 1.345e-13 9.67087e-14 -98.7955 31.5006 31.8703 10.7909 -4.63342 -19.2981 0.158811 -11.2953 1.6085 3.34261e-09 -1.35768e-09 -2.80348e-10 5.77749e-09 -2.34511e-09 -4.61586e-10 3.34261e-09 -1.35768e-09 -2.80337e-10 -7.73091 5.47488 -0.417314 3.34261e-09 -1.35768e-09 -2.80356e-10 -2.90554 0.965183 -0.102902 3.3426e-09 -1.35768e-09 -2.80351e-10 -10.2786 0.731801 -0.0259123 3.34261e-09 -1.35767e-09 -2.80357e-10 -2.22167 -0.733487 0.20892 -2.03217e-16 0.0 -3.88251e-19 3.19373 -28.6051 5.84842 -1.21035 62.116 1.69124 -4.24467 -14.4225 -10.2402 2.03217e-16 0.0 3.88251e-19 5.54888 -13.1502 -1.42986 0.0980226 29.7946 -0.387557 0.0881338 1.00467 -14.7311
262.959 80.7404 -29.5714 -712.07 -353.936 721.605 -5.06277 2.34707 14.1987 -2.51445 1.02523 3.92085 4.88505 5.39436 7.58373 4.12839 -12.068 14.5344 -0.0 0.0 0.0 -0.0 0.0 0.0 -1.51601e-13 7.26046e-14 2.0836e-13 76.843 60.7765 1.10841 -22.8626 -17.1123 46.1777 -0.0850541 -8.2883 -1.17313 1.03262e-09 3.28735e-09 -1.41693e-09 1.79404e-09 5.6806e-09 -2.44662e-09 1.03263e-09 3.28735e-09 -1.41694e-09 7.73091 5.47488 0.417314 1.03262e-09 3.28735e-09 -1.41693e-09 2.90554 0.965183 0.102902 1.03262e-09 3.28735e-09 -1.41693e-09 10.2786 0.731801 0.0259123 1.03262e-09 3.28736e-09 -1.41692e-09 2.22167 -0.733487 -0.20892 -1.51729e-13 7.26002e-14 2.08202e-13 -98.5263 31.9738 31.6891 11.0549 -4.80428 -19.8012 0.150636 -11.0005 1.56547 2.77072e-09 -1.77985e-09 6.4957e-10 4.78163e-09 -3.07611e-09 1.14259e-09 2.77072e-09 -1.77985e-09 6.4958e-10 -7.73091 5.47488 -0.417314 2.77072e-09 -1.77985e-09 6.49563e-10 -2.90554 0.965183 -0.102902 2.77072e-09 -1.77985e-09 6.49568e-10 -10.2786 0.731801 -0.0259123 2.77072e-09 -1.77985e-09 6.49564e-10 -2.22167 -0.733487 0.20892 -2.03217e-16 0.0 -3.88251e-19 3.03029 -28.8712 3.93768 -1.16793 61.7016 1.69662 -5.49097 -15.9273 -12.8315 2.03217e-16 0.0 3.88251e-19 5.4636 -13.4884 -1.18679 0.107359 30.2274 -0.404808 0.0441682 0.931351 -15.2021
263.419 80.7237 -29.7661 -712.24 -355.434 721.824 -5.13067 2.32666 14.242 -2.44127 0.969013 3.9393 4.80612 5.3806 7.60782 4.35548 -12.2648 14.6264 -0.0 0.0 0.0 -0.0 0.0 0.0 -8.24618e-14 3.26026e-14 2.73577e-13 77.4584 60.6253 0.321626 -23.0179 -17.3663 46.6376 -0.0920241 -8.62072 -1.22088 8.91274e-10 3.63295e-09 -1.55303e-09 1.55059e-09 6.28266e-09 -2.68472e-09 8.9128e-10 3.63294e-09 -1.55304e-09 7.73091 5.47488 0.417314 8.91274e-10 3.63294e-09 -1.55302e-09 2.90554 0.965183 0.102902 8.91279e-10 3.63295e-09 -1.55302e-09 10.2786 0.731801 0.0259123 8.91273e-10 3.63295e-09 -1.55301e-09 2.22167 -0.733487 -0.20892 -8.25349e-14 3.2598e-14 2.73428e-13 -98.0769 32.3623 31.4872 11.3762 -5.02069 -20.4089 0.147335 -10.8769 1.54747 2.36753e-09 -2.01637e-09 1.26258e-09 4.0799e-09 -3.48603e-09 2.20011e-09 2.36753e-09 -2.01637e-09 1.26258e-09 -7.73091 5.47488 -0.417314 2.36754e-09 -2.01637e-09 1.26257e-09 -2.90554 0.965183 -0.102902 2.36753e-09 -2.01637e-09 1.26257e-09 -10.2786 0.731801 -0.0259123 2.36754e-09 -2.01637e-09 1.26257e-09 -2.22167 -0.733487 0.20892 -2.03217e-16 0.0 -3.88251e-19 2.99751 -29.0225 2.27876 -1.11714 61.1242 1.69376 -6.75851 -17.5098 -15.108 2.03217e-16 0.0 3.88251e-19 5.42557 -13.7847 -1.0142 0.116542 30.6639 -0.42244 -0.0333749 0.749325 -15.6328
263.837 80.6948 -29.9476 -712.452 -356.95 722.012 -5.1676 2.34398 14.3688 -2.39012 0.927837 3.98181 4.75862 5.3368 7.63614 4.58495 -12.3859 14.7174 -0.0 0.0 0.0 -0.0 0.0 0.0 -6.8729e-14 2.35081e-14 2.76704e-13 77.9941 60.5394 -0.355537 -23.1275 -17.5485 46.9648 -0.100439 -9.01755 -1.27795 9.72494e-10 3.36036e-09 -1.50031e-09 1.69087e-09 5.81026e-09 -2.59274e-09 9.72498e-10 3.36035e-09 -1.50032e-09 7.73091 5.47488 0.417314 9.72494e-10 3.36035e-09 -1.5003e-09 2.90554 0.965183 0.102902 9.72499e-10 3.36036e-09 -1.5003e-09 10.2786 0.731801 0.0259123 9.72491e-10 3.36036e-09 -1.5003e-09 2.22167 -0.733487 -0.20892 -6.8763e-14 2.35039e-14 2.76558e-13 -97.4031 32.6492 31.2482 11.7642 -5.28773 -21.1497 0.149749 -10.9581 1.55935 2.27604e-09 -2.00968e-09 1.44731e-09 3.92031e-09 -3.47548e-09 2.51973e-09 2.27604e-09 -2.00968e-09 1.44732e-09 -7.73091 5.47488 -0.417314 2.27604e-09 -2.00968e-09 1.4473e-09 -2.90554 0.965183 -0.102902 2.27603e-09 -2.00968e-09 1.44731e-09 -10.2786 0.731801 -0.0259123 2.27604e-09 -2.00968e-09 1.44731e-09 -2.22167 -0.733487 0.20892 -2.03217e-16 0.0 -3.88251e-19 3.15233 -29.038 0.90021 -1.0553 60.3374 1.68244 -8.04166 -19.2968 -17.0306 2.03217e-16 0.0 3.88251e-19 5.4533 -14.0407 -0.91964 0.125962 31.133 -0.441311 -0.149301 0.458661 -16.0366
